<svg xmlns="http://www.w3.org/2000/svg" viewBox="0 0 400 96" width="400" height="96" role="img" aria-label="Pramana">
  <title>Pramana</title>
  <g fill="none" stroke="#0B3D5C" stroke-width="5" stroke-linecap="round" stroke-linejoin="round">
    <path d="M48 30 L48 78"/>
    <path d="M18 30 L78 30"/>
    <path d="M18 30 L8 52 M18 30 L28 52"/>
    <path d="M78 30 L68 52 M78 30 L88 52"/>
    <path d="M40 82 L56 82"/>
    <path d="M48 78 L40 82 M48 78 L56 82"/>
  </g>
  <path d="M6 52 A13 9 0 0 0 30 52" fill="none" stroke="#1FA67A" stroke-width="5" stroke-linecap="round"/>
  <path d="M66 52 A13 9 0 0 0 90 52" fill="none" stroke="#1FA67A" stroke-width="5" stroke-linecap="round"/>
  <circle cx="48" cy="28" r="5" fill="#1FA67A"/>
  <g transform="translate(104.00 46.00) scale(0.036000 -0.036000)" fill="#0B3D5C">
    <path transform="translate(0.0 0.0)" d="M66 0V700H354Q420 700 470.5 673.5Q521 647 549.5 599.0Q578 551 578 485V471Q578 406 548.5 357.5Q519 309 468.5 282.5Q418 256 354 256H198V0ZM198 376H341Q388 376 417.0 402.0Q446 428 446 473V483Q446 528 417.0 554.0Q388 580 341 580H198Z"/>
    <path transform="translate(631.8 0.0)" d="M70 0V496H194V440H212Q223 470 248.5 484.0Q274 498 308 498H368V386H306Q258 386 227.0 360.5Q196 335 196 282V0Z"/>
    <path transform="translate(1043.6 0.0)" d="M224 -14Q171 -14 129.0 4.5Q87 23 62.5 58.5Q38 94 38 145Q38 196 62.5 230.5Q87 265 130.5 282.5Q174 300 230 300H366V328Q366 363 344.0 385.5Q322 408 274 408Q227 408 204.0 386.5Q181 365 174 331L58 370Q70 408 96.5 439.5Q123 471 167.5 490.5Q212 510 276 510Q374 510 431.0 461.0Q488 412 488 319V134Q488 104 516 104H556V0H472Q435 0 411.0 18.0Q387 36 387 66V67H368Q364 55 350.0 35.5Q336 16 306.0 1.0Q276 -14 224 -14ZM246 88Q299 88 332.5 117.5Q366 147 366 196V206H239Q204 206 184.0 191.0Q164 176 164 149Q164 122 185.0 105.0Q206 88 246 88Z"/>
    <path transform="translate(1649.3 0.0)" d="M70 0V496H194V442H212Q225 467 255.0 485.5Q285 504 334 504Q387 504 419.0 483.5Q451 463 468 430H486Q503 462 534.0 483.0Q565 504 622 504Q668 504 705.5 484.5Q743 465 765.5 425.5Q788 386 788 326V0H662V317Q662 358 641.0 378.5Q620 399 582 399Q539 399 515.5 371.5Q492 344 492 293V0H366V317Q366 358 345.0 378.5Q324 399 286 399Q243 399 219.5 371.5Q196 344 196 293V0Z"/>
    <path transform="translate(2531.1 0.0)" d="M224 -14Q171 -14 129.0 4.5Q87 23 62.5 58.5Q38 94 38 145Q38 196 62.5 230.5Q87 265 130.5 282.5Q174 300 230 300H366V328Q366 363 344.0 385.5Q322 408 274 408Q227 408 204.0 386.5Q181 365 174 331L58 370Q70 408 96.5 439.5Q123 471 167.5 490.5Q212 510 276 510Q374 510 431.0 461.0Q488 412 488 319V134Q488 104 516 104H556V0H472Q435 0 411.0 18.0Q387 36 387 66V67H368Q364 55 350.0 35.5Q336 16 306.0 1.0Q276 -14 224 -14ZM246 88Q299 88 332.5 117.5Q366 147 366 196V206H239Q204 206 184.0 191.0Q164 176 164 149Q164 122 185.0 105.0Q206 88 246 88Z"/>
    <path transform="translate(3136.9 0.0)" d="M70 0V496H194V431H212Q224 457 257.0 480.5Q290 504 357 504Q415 504 458.5 477.5Q502 451 526.0 404.5Q550 358 550 296V0H424V286Q424 342 396.5 370.0Q369 398 318 398Q260 398 228.0 359.5Q196 321 196 252V0Z"/>
    <path transform="translate(3780.7 0.0)" d="M224 -14Q171 -14 129.0 4.5Q87 23 62.5 58.5Q38 94 38 145Q38 196 62.5 230.5Q87 265 130.5 282.5Q174 300 230 300H366V328Q366 363 344.0 385.5Q322 408 274 408Q227 408 204.0 386.5Q181 365 174 331L58 370Q70 408 96.5 439.5Q123 471 167.5 490.5Q212 510 276 510Q374 510 431.0 461.0Q488 412 488 319V134Q488 104 516 104H556V0H472Q435 0 411.0 18.0Q387 36 387 66V67H368Q364 55 350.0 35.5Q336 16 306.0 1.0Q276 -14 224 -14ZM246 88Q299 88 332.5 117.5Q366 147 366 196V206H239Q204 206 184.0 191.0Q164 176 164 149Q164 122 185.0 105.0Q206 88 246 88Z"/>
  </g>
  <g transform="translate(105.00 72.00) scale(0.019000 -0.019000)" fill="#1FA67A">
    <path transform="translate(0.0 0.0)" d="M45 53 214 153Q160 162 128 194Q103 221 91.0 257.5Q79 294 79 358V551H0V622H583V551H479V0H398V193L92 -13ZM398 551H160V369Q160 328 163.0 304.0Q166 280 172.5 265.5Q179 251 190 240Q213 217 262 217Q301 217 337.0 236.0Q373 255 398 280Z"/>
    <path transform="translate(568.0 0.0)" d="M509 551V0H428V250H207V213Q207 180 192.5 165.5Q178 151 159 151Q140 151 119.0 163.5Q98 176 80.0 195.5Q62 215 50.5 237.0Q39 259 39 278Q39 296 52.5 308.5Q66 321 100 321H126V551H0V622H612V551ZM428 551H207V321H428Z"/>
    <path transform="translate(1166.0 0.0)" d="M170 551V0H89V551H0V622H273V551Z"/>
    <path transform="translate(1425.0 0.0)" d="M634 551V0H553V551H420V321Q420 279 411.5 250.0Q403 221 385 198Q364 173 331.0 159.5Q298 146 251 146Q158 146 114 205Q97 228 88.0 263.0Q79 298 79 352V551H0V622H737V551ZM249 217Q301 217 321 249Q332 266 335.5 288.0Q339 310 339 353V551H160V353Q160 314 164.0 291.0Q168 268 178 251Q189 235 205.5 226.0Q222 217 249 217Z"/>
  </g>
  <g transform="translate(145.81 72.00) scale(0.009277 -0.009277)" fill="#1FA67A">
    <path transform="translate(576.0 0.0)" d="M295 573Q239 573 199.5 612.5Q160 652 160 708Q160 764 199.5 803.5Q239 843 295 843Q351 843 390.5 803.5Q430 764 430 708Q430 652 390.5 612.5Q351 573 295 573Z"/>
    <path transform="translate(1742.0 0.0)" d="M158 -418V1118H332V939H352Q371 969 405.0 1014.5Q439 1060 503.0 1096.0Q567 1132 676 1132Q816 1132 922.5 1062.0Q1029 992 1089.5 862.5Q1150 733 1150 556Q1150 378 1090.0 248.0Q1030 118 923.5 47.0Q817 -24 677 -24Q571 -24 506.0 12.5Q441 49 406.0 95.5Q371 142 352 173H338V-418ZM650 137Q755 137 825.5 193.5Q896 250 931.5 345.5Q967 441 967 558Q967 674 932.0 767.5Q897 861 826.5 916.0Q756 971 650 971Q547 971 477.0 919.0Q407 867 371.5 774.5Q336 682 336 558Q336 434 372.0 339.0Q408 244 478.5 190.5Q549 137 650 137Z"/>
    <path transform="translate(2996.0 0.0)" d="M158 0V1118H332V946H344Q375 1031 454.5 1082.5Q534 1134 634 1134Q654 1134 681.5 1133.0Q709 1132 725 1131V950Q717 952 685.0 956.0Q653 960 617 960Q537 960 473.5 926.5Q410 893 374.0 834.5Q338 776 338 700V0Z"/>
    <path transform="translate(3733.0 0.0)" d="M613 -24Q461 -24 346.5 48.0Q232 120 168.0 250.0Q104 380 104 552Q104 727 168.0 857.5Q232 988 346.5 1060.0Q461 1132 613 1132Q766 1132 881.0 1060.0Q996 988 1060.0 857.5Q1124 727 1124 552Q1124 380 1060.0 250.0Q996 120 881.0 48.0Q766 -24 613 -24ZM613 137Q726 137 799.0 195.0Q872 253 907.0 347.5Q942 442 942 552Q942 663 907.0 758.5Q872 854 799.0 912.5Q726 971 613 971Q501 971 429.0 912.5Q357 854 322.0 759.0Q287 664 287 552Q287 442 322.0 347.5Q357 253 429.0 195.0Q501 137 613 137Z"/>
    <path transform="translate(4961.0 0.0)" d="M613 -24Q461 -24 346.5 48.0Q232 120 168.0 250.0Q104 380 104 552Q104 727 168.0 857.5Q232 988 346.5 1060.0Q461 1132 613 1132Q766 1132 881.0 1060.0Q996 988 1060.0 857.5Q1124 727 1124 552Q1124 380 1060.0 250.0Q996 120 881.0 48.0Q766 -24 613 -24ZM613 137Q726 137 799.0 195.0Q872 253 907.0 347.5Q942 442 942 552Q942 663 907.0 758.5Q872 854 799.0 912.5Q726 971 613 971Q501 971 429.0 912.5Q357 854 322.0 759.0Q287 664 287 552Q287 442 322.0 347.5Q357 253 429.0 195.0Q501 137 613 137Z"/>
    <path transform="translate(6189.0 0.0)" d="M678 1118V964H20V1118ZM240 0V1267Q240 1364 285.5 1429.0Q331 1494 404.0 1527.0Q477 1560 558 1560Q622 1560 664.0 1549.5Q706 1539 726 1530L676 1376Q662 1381 639.5 1387.0Q617 1393 579 1393Q496 1393 458.0 1350.5Q420 1308 420 1227V0Z"/>
    <path transform="translate(7523.0 0.0)" d="M613 -24Q461 -24 346.5 48.0Q232 120 168.0 250.0Q104 380 104 552Q104 727 168.0 857.5Q232 988 346.5 1060.0Q461 1132 613 1132Q766 1132 881.0 1060.0Q996 988 1060.0 857.5Q1124 727 1124 552Q1124 380 1060.0 250.0Q996 120 881.0 48.0Q766 -24 613 -24ZM613 137Q726 137 799.0 195.0Q872 253 907.0 347.5Q942 442 942 552Q942 663 907.0 758.5Q872 854 799.0 912.5Q726 971 613 971Q501 971 429.0 912.5Q357 854 322.0 759.0Q287 664 287 552Q287 442 322.0 347.5Q357 253 429.0 195.0Q501 137 613 137Z"/>
    <path transform="translate(8751.0 0.0)" d="M678 1118V964H20V1118ZM240 0V1267Q240 1364 285.5 1429.0Q331 1494 404.0 1527.0Q477 1560 558 1560Q622 1560 664.0 1549.5Q706 1539 726 1530L676 1376Q662 1381 639.5 1387.0Q617 1393 579 1393Q496 1393 458.0 1350.5Q420 1308 420 1227V0Z"/>
    <path transform="translate(10085.0 0.0)" d="M338 1490V0H158V1490Z"/>
    <path transform="translate(10581.0 0.0)" d="M628 -24Q466 -24 348.5 48.0Q231 120 167.5 249.0Q104 378 104 550Q104 722 166.0 853.0Q228 984 341.5 1058.0Q455 1132 607 1132Q696 1132 782.5 1102.5Q869 1073 939.5 1007.5Q1010 942 1052.0 835.0Q1094 728 1094 573V498H226V650H997L913 594Q913 704 878.5 789.5Q844 875 776.0 923.5Q708 972 607 972Q506 972 434.0 922.5Q362 873 324.0 793.5Q286 714 286 623V522Q286 398 329.0 311.5Q372 225 449.5 180.5Q527 136 629 136Q695 136 749.0 155.0Q803 174 842.0 212.5Q881 251 902 308L1076 260Q1050 176 988.0 112.0Q926 48 834.5 12.0Q743 -24 628 -24Z"/>
    <path transform="translate(11795.0 0.0)" d="M471 -26Q365 -26 278.5 14.0Q192 54 141.0 131.0Q90 208 90 318Q90 414 128.0 474.0Q166 534 229.5 568.5Q293 603 370.0 620.0Q447 637 525 647Q625 660 688.0 667.0Q751 674 781.5 691.0Q812 708 812 749V755Q812 825 786.0 873.5Q760 922 708.0 948.0Q656 974 578 974Q498 974 441.0 949.0Q384 924 348.5 886.5Q313 849 295 810L122 867Q165 969 238.0 1026.5Q311 1084 399.0 1108.0Q487 1132 573 1132Q629 1132 700.5 1118.5Q772 1105 838.5 1065.0Q905 1025 948.5 946.5Q992 868 992 737V0H815V152H803Q784 113 742.0 71.5Q700 30 633.0 2.0Q566 -26 471 -26ZM502 133Q602 133 671.0 172.0Q740 211 776.0 273.5Q812 336 812 404V559Q801 546 764.0 535.5Q727 525 679.5 517.0Q632 509 587.5 503.5Q543 498 517 495Q452 487 395.5 467.5Q339 448 305.0 410.5Q271 373 271 309Q271 251 301.0 212.0Q331 173 383.0 153.0Q435 133 502 133Z"/>
    <path transform="translate(12945.0 0.0)" d="M158 0V1118H332V946H344Q375 1031 454.5 1082.5Q534 1134 634 1134Q654 1134 681.5 1133.0Q709 1132 725 1131V950Q717 952 685.0 956.0Q653 960 617 960Q537 960 473.5 926.5Q410 893 374.0 834.5Q338 776 338 700V0Z"/>
    <path transform="translate(13748.0 0.0)" d="M338 670V0H158V1118H331L332 847H307Q358 1002 452.5 1067.0Q547 1132 674 1132Q787 1132 872.0 1085.5Q957 1039 1004.5 945.5Q1052 852 1052 710V0H872V695Q872 824 804.5 897.0Q737 970 620 970Q540 970 476.0 935.0Q412 900 375.0 833.0Q338 766 338 670Z"/>
    <path transform="translate(14958.0 0.0)" d="M158 0V1118H338V0ZM249 1301Q198 1301 161.0 1336.0Q124 1371 124 1420Q124 1470 161.0 1504.5Q198 1539 249 1539Q301 1539 338.0 1504.5Q375 1470 375 1420Q375 1371 338.0 1336.0Q301 1301 249 1301Z"/>
    <path transform="translate(15454.0 0.0)" d="M338 670V0H158V1118H331L332 847H307Q358 1002 452.5 1067.0Q547 1132 674 1132Q787 1132 872.0 1085.5Q957 1039 1004.5 945.5Q1052 852 1052 710V0H872V695Q872 824 804.5 897.0Q737 970 620 970Q540 970 476.0 935.0Q412 900 375.0 833.0Q338 766 338 670Z"/>
    <path transform="translate(16664.0 0.0)" d="M611 -442Q487 -442 396.5 -410.5Q306 -379 246.0 -327.0Q186 -275 151 -214L297 -120Q321 -152 356.5 -191.0Q392 -230 452.5 -257.5Q513 -285 611 -285Q745 -285 831.5 -221.0Q918 -157 918 -19V205H901Q882 173 847.5 129.0Q813 85 748.5 51.5Q684 18 576 18Q442 18 335.0 81.5Q228 145 166.0 267.0Q104 389 104 564Q104 737 165.0 864.5Q226 992 333.5 1062.0Q441 1132 580 1132Q688 1132 752.5 1096.5Q817 1061 852.0 1015.0Q887 969 906 939H923V1118H1098V-29Q1098 -173 1033.0 -264.5Q968 -356 857.5 -399.0Q747 -442 611 -442ZM606 178Q708 178 778.0 224.5Q848 271 884.0 358.5Q920 446 920 568Q920 687 884.5 777.5Q849 868 779.0 919.5Q709 971 606 971Q500 971 429.0 916.5Q358 862 322.5 771.0Q287 680 287 568Q287 453 323.0 365.0Q359 277 430.0 227.5Q501 178 606 178Z"/>
  </g>
</svg>
